<svg width="1920" height="474" viewBox="0 0 1920 474" fill="none" xmlns="http://www.w3.org/2000/svg">
<path d="M1921 298.5V298.042L1920.54 298.002C936.514 211.599 228.805 261.998 -2.07705 298.006L-2.5 298.072V298.5V474.5V475H-2H1920.5H1921V474.5V298.5Z" stroke="#EAEAEA"/>
<path d="M240.821 103.297C242.328 102.522 258.539 95.7233 260.731 95.3583C260.731 95.3583 267.901 98.4152 268.403 98.7803C268.905 99.1453 268.586 102.43 267.079 104.027C265.526 105.624 265.572 106.08 264.43 105.715C263.289 105.35 265.024 103.206 265.48 102.476C265.891 101.792 265.48 99.8753 265.48 99.8753C265.48 99.8753 264.385 104.392 262.786 105.715C261.919 106.445 257.854 107.449 260.457 105.214C262.786 103.252 263.426 100.56 263.426 100.56C263.426 100.56 260.549 105.396 258.631 106.674C256.758 107.951 256.667 107.221 257.489 105.35C258.265 103.525 260.001 100.697 260.001 100.697C260.001 100.697 259.498 105.807 252.786 108.362C251.553 108.864 239.223 110.187 239.223 110.187L240.821 103.297Z" fill="#DDAC9E"/>
<path d="M267.216 95.4867L245.806 109.374L247.05 111.287L268.459 97.4L267.216 95.4867Z" fill="#232121"/>
<path d="M276.76 88.332L278.952 91.6627C279.637 92.9858 277.856 95.5409 274.887 97.4572C271.919 99.3735 268.86 99.9666 267.946 98.826L265.754 95.4953L276.76 88.332Z" fill="black"/>
<path d="M277.977 88.7348L276.945 89.4089L277.32 89.9817L278.352 89.3076L277.977 88.7348Z" fill="black"/>
<path d="M277.536 88.8794L277.993 88.6056C278.13 88.4231 278.267 88.2863 278.495 88.1494C278.678 88.0125 278.906 87.9212 279.089 87.8756L279.545 87.6019L279.911 88.195C280.093 88.4688 279.819 89.0163 279.271 89.3813C278.723 89.7463 278.13 89.7919 277.947 89.5182L277.856 89.3356L277.536 88.8794Z" fill="black"/>
<path d="M277.582 88.9707C277.764 89.2445 278.358 89.1532 278.906 88.7882C279.454 88.4232 279.774 87.9213 279.591 87.6475C279.408 87.3738 278.815 87.465 278.267 87.7844C277.673 88.1951 277.399 88.6969 277.582 88.9707Z" fill="#232121"/>
<path d="M265.754 95.4952C266.531 96.7271 269.682 96.134 272.741 94.1264C275.801 92.1645 277.627 89.5638 276.805 88.3319C275.983 87.1 272.878 87.6932 269.819 89.7007C266.759 91.6626 264.932 94.2633 265.754 95.4952Z" fill="#232121"/>
<path d="M267.627 94.4914C268.083 95.1758 270.093 94.6283 272.148 93.2595C274.202 91.9364 275.527 90.2938 275.116 89.6094C274.705 88.925 272.65 89.4726 270.595 90.8413C268.494 92.2101 267.17 93.807 267.627 94.4914Z" fill="white"/>
<path d="M249.543 102.385C251.598 103.252 257.535 104.301 259.544 103.252C261.553 102.202 264.11 101.974 264.887 102.248C265.663 102.476 267.444 100.742 264.841 100.332C262.238 99.9209 256.53 98.7346 253.014 98.6434C249.498 98.5978 249.543 102.385 249.543 102.385Z" fill="#DDAC9E"/>
<path d="M186.343 81.9899C198.307 83.0393 215.02 104.301 216.39 104.62C220.318 105.579 231.049 102.887 243.013 101.062C246.803 100.468 244.84 120.088 244.84 120.088C244.84 120.088 223.149 127.342 208.079 124.605C201.093 123.327 186.891 112.742 183.649 107.997C175.703 96.3621 169.584 80.4842 186.343 81.9899Z" fill="#3357BC"/>
<path d="M194.837 52.9261C192.736 56.7587 191.001 61.9144 185.338 65.382C179.676 68.8496 179.676 68.8496 179.676 68.8496L195.384 84.7274C195.384 84.7274 199.951 75.9672 204.655 74.2334C209.312 72.4996 194.837 52.9261 194.837 52.9261Z" fill="#DDAC9E"/>
<path d="M234.657 42.6603C233.926 30.4325 209.632 15.0109 200.271 31.1169C183.146 60.5 200.956 72.454 200.956 72.454C207.577 74.9178 208.947 76.3322 214.473 76.3322C217.167 76.3778 219.998 73.6403 223.195 69.7621C225.432 70.1271 227.807 71.0396 228.172 69.4427C227.898 67.0245 228.994 63.1463 229.085 61.5038C232.83 54.9336 235.022 48.4548 234.657 42.6603Z" fill="#DDAC9E"/>
<path d="M206.481 74.8722C210.408 76.7429 211.276 77.0623 214.335 76.606C216.984 76.1954 219.815 73.9141 223.058 70.0359C225.295 70.4009 227.715 71.3134 228.035 69.7165C227.761 67.2983 228.857 63.4201 228.948 61.7776C232.693 55.1618 236.894 50.5536 236.483 44.8047C236.437 44.2116 234.382 41.6565 234.2 41.0178L223.195 39.0102C210.5 53.1543 203.056 64.7889 204.7 72.3172L190.042 80.1192L195.11 88.4231C195.11 88.4231 203.056 78.2942 206.481 74.8722Z" fill="#E8C8BA"/>
<path d="M206.07 23.0411C209.586 20.988 214.062 19.026 221.962 23.1324C229.633 27.1018 234.154 30.7519 236.483 38.5539C237.716 42.5234 234.474 44.896 234.474 44.896C234.474 44.896 230.958 39.8771 228.857 39.4665C226.756 39.0558 228.4 43.3903 224.199 45.5803C220.683 47.4054 215.888 50.0061 215.888 50.0061C215.888 50.0061 206.572 48.911 205.111 51.3748C203.65 53.8843 192.873 55.9831 192.873 55.9831C192.873 55.9831 190.133 49.0935 192.827 38.8733C196.8 23.7255 205.203 23.543 206.07 23.0411Z" fill="#300901"/>
<path d="M211.915 50.5991C211.002 48.911 209.815 44.6678 207.577 45.6715C205.385 46.7666 202.782 52.9261 205.248 56.4393C207.668 59.9525 211.915 50.5991 211.915 50.5991Z" fill="#DDAC9E"/>
<path d="M248.082 48.1811C252.512 50.2798 251.827 53.7474 247.625 55.6181C243.424 57.4431 242.191 55.5268 239.04 53.428C234.109 50.143 230.41 46.5385 230.41 46.5385L248.082 48.1811Z" fill="#A39D9D"/>
<path d="M190.772 44.3485C194.06 44.3029 214.199 40.1965 214.199 40.1965C214.199 40.1965 224.199 49.9605 229.496 50.5536C234.793 51.1467 243.881 45.1241 250.274 49.778C242.876 43.1166 238.903 41.2915 238.903 41.2915C238.903 41.2915 239.223 32.1664 230.09 24.0449C226.117 20.5774 218.126 17.7942 214.473 18.3417C210.774 18.9348 201.823 18.8892 196.891 26.7369C191.96 34.6302 190.772 44.3485 190.772 44.3485Z" fill="#BFB8B8"/>
<path d="M196.846 26.8737C191.96 34.7214 190.727 44.4397 190.727 44.4397C193.512 44.3941 208.125 41.5196 212.737 40.6071C211.276 33.4439 211.687 23.4518 215.386 18.4329C215.066 18.4329 214.701 18.4329 214.427 18.4785C210.728 19.0717 201.732 19.0717 196.846 26.8737Z" fill="#A39D9D"/>
<path d="M134.467 316.553C136.111 321.161 134.924 326.089 134.285 332.294C133.645 338.499 132.184 343.153 138.44 344.613C144.651 346.027 167.848 346.164 167.848 346.164C167.848 346.164 180.269 343.381 167.3 337.769C157.254 333.434 149.811 328.005 150.678 316.233C150.907 313.906 134.467 316.553 134.467 316.553Z" fill="black"/>
<path d="M165.565 167.858C165.017 190.762 163.054 254.547 162.643 257.787C158.944 288.493 155.291 330.788 155.291 330.788L136.385 330.332C136.385 330.332 128.987 277.406 135.792 255.46C137.846 248.798 127.983 183.325 127.983 183.325L165.565 167.858Z" fill="#3357BC"/>
<path d="M116.155 328.507C115.562 333.662 112.776 340.598 114.42 347.715C114.968 350.179 119.489 351.228 123.142 352.095C124.649 352.46 129.946 356.019 132.641 357.023C142.459 360.673 147.208 357.981 149.034 356.886C150.907 355.791 151.455 353.054 147.071 348.902C143.326 345.343 137.938 343.381 136.476 340.05C134.97 336.719 135.7 326.225 135.7 326.225L116.155 328.507Z" fill="#232121"/>
<path d="M163.647 163.888C163.099 186.793 158.761 212.754 149.674 259.52C146.66 275.033 137.801 341.921 137.801 341.921L113.37 342.651C113.37 342.651 110.31 286.942 113.37 259.566C113.872 255.232 118.21 217.91 115.334 188.481C113.324 167.812 124.101 147.828 124.101 147.828L163.647 163.888Z" fill="#4D87DB"/>
<path d="M201.732 80.4842L204.061 84.1343L200.362 92.8945L195.887 84.6362L201.732 80.4842Z" fill="#4D87DB"/>
<path d="M185.886 64.5607C174.698 67.7089 160.222 76.0584 148.486 97.0464C139.216 113.609 120.585 144.224 122.823 154.079C124.33 160.74 155.017 179.629 161.318 180.861C167.574 182.093 180.589 161.333 183.877 152.528C187.165 143.676 199.449 97.7308 197.074 89.0162C194.745 80.3473 185.886 64.5607 185.886 64.5607Z" fill="#4D87DB"/>
<path d="M187.347 61.3669C188.991 64.9714 200.636 84.6362 200.636 84.6362L194.243 96.2252L179.036 65.747L187.347 61.3669Z" fill="#3357BC"/>
<path d="M327.631 104.118C322.197 105.168 319.548 104.712 316.26 104.529C315.347 104.483 314.707 103.388 310.369 101.381C309.365 100.879 302.013 95.5864 302.058 96.9552C302.104 98.3696 300.14 103.115 301.191 103.023C302.241 102.932 301.967 107.084 303.291 107.267C304.341 107.404 294.204 108.499 302.241 117.304C302.926 118.034 306.807 117.441 307.173 117.533C308.817 117.898 328.133 115.114 328.133 115.114L327.631 104.118Z" fill="#DDAC9E"/>
<path d="M364.391 60.6825C361.195 66.2945 346.81 94.3544 346.81 94.3544L317.036 104.118C317.036 104.118 319.457 120.909 321.786 121.912C324.343 123.007 355.121 114.339 355.121 114.339L385.397 79.2066L364.391 60.6825Z" fill="#BFB8B8"/>
<path d="M377.954 48.4547C378.958 46.6297 405.261 41.4283 409.326 44.8959C413.39 48.3635 412.385 54.5686 411.152 56.6218C409.919 58.6749 376.721 59.4506 376.721 59.4506L377.954 48.4547Z" fill="#BFB8B8"/>
<path d="M384.073 34.2651L382.246 63.3745C382.246 63.3745 395.58 82.4461 402.75 83.5867C409.919 84.773 411.381 65.7926 408.23 62.2794C398.777 51.6942 401.288 31.5275 401.288 31.5275L384.073 34.2651Z" fill="#DDAC9E"/>
<path d="M413.024 56.8043C401.654 49.0935 403.115 31.8925 403.115 31.8925L393.206 34.8126L394.85 86.0505C401.973 87.0086 416.86 59.4049 413.024 56.8043Z" fill="#E8C8BA"/>
<path d="M380.557 33.307C378.319 29.6113 397.635 32.0295 403.48 34.8126L392.247 79.7086C388.776 79.1611 374.574 73.0928 373.204 71.9065C374.437 68.9865 384.484 39.8315 380.557 33.307Z" fill="url(#paint0_linear)"/>
<path d="M388.091 65.9751C383.799 60.1349 384.758 51.7398 384.758 51.7398C384.758 51.7398 376.584 48.3178 365.122 59.7699C362.427 62.4619 366.172 76.5147 365.624 81.716C365.03 86.9174 370.191 89.0162 371.332 94.8107C372.474 100.605 372.382 139.752 377.588 146.596C381.104 151.204 380.237 144.999 399.964 145.273C399.964 123.829 398.229 85.2292 397.087 73.6402C396.996 72.7733 392.658 72.1802 388.091 65.9751Z" fill="#BFB8B8"/>
<path d="M370.282 206.184L346.353 198.108H185.156L214.929 206.184H370.282Z" fill="#414E5B"/>
<path d="M247.443 198.336C247.214 201.621 247.58 203.674 244.292 203.218L226.254 201.439C222.966 200.982 220.272 197.88 220.272 194.595L220.135 168.816C220.135 165.485 222.784 163.022 226.117 163.295L243.653 164.755C246.94 165.029 249.498 167.949 249.269 171.234L247.443 198.336Z" fill="#232121"/>
<path d="M354.39 169.546H245.388V203.218H354.39V169.546Z" fill="black"/>
<path d="M245.479 160.512L351.468 161.47C351.468 161.47 358.318 169.546 357.313 173.926C356.308 178.443 355.852 178.306 355.852 178.306H245.479V160.512Z" fill="#232121"/>
<path d="M402.476 21.8092C400.512 11.8171 396.95 3.74131 382.657 6.43324C364.756 9.76394 368.318 20.4404 370.327 32.6682C372.337 44.8959 382.246 56.7587 391.379 55.253C398.366 54.1124 402.841 45.5347 403.709 36.1357C405.398 34.8126 406.403 31.9838 406.038 28.8812C405.535 24.9117 405.124 21.6267 402.476 21.8092Z" fill="#E8C8BA"/>
<path d="M372.474 40.7896C376.584 49.0479 384.529 56.2568 391.288 55.1617C391.607 55.1161 390.238 55.0705 390.238 55.0705C370.419 29.4743 379.05 7.43701 377.817 7.80202C368.136 11.0415 366.035 17.7485 367.542 26.6455C367.268 26.6912 369.871 34.7669 372.474 40.7896Z" fill="#DDAC9E"/>
<path d="M380.968 1.96193C375.122 0.273771 367.131 4.33448 365.441 10.7677C364.482 14.3266 363.752 17.7029 364.482 22.9955C365.213 28.3337 367.816 32.0751 367.816 32.0751L369.643 33.5807C369.643 33.5807 365.715 26.0981 370.876 21.4442C375.214 17.5204 383.89 17.0185 383.89 17.0185L380.968 1.96193Z" fill="#300901"/>
<path d="M372.382 20.2123C374.437 21.9005 379.872 22.4023 384.529 21.2617C389.233 20.121 393.708 20.5773 395.261 22.4023C396.813 24.2274 398.001 27.2387 398.001 27.2387L402.521 23.4974H405.718C405.718 23.4974 405.444 14.4178 401.928 8.39518C399.873 4.9276 395.854 1.68816 390.603 0.638765C387.909 0.0912538 376.903 -1.46003 372.108 3.87821C370.602 5.47512 372.382 20.2123 372.382 20.2123Z" fill="#662619"/>
<path d="M441.839 362.954L450.972 362.726C450.972 362.726 461.612 360.171 454.58 350.362C449.328 343.062 450.15 340.324 447.365 334.621C445.675 331.199 432.934 333.298 432.934 333.298C432.934 333.298 434.578 344.339 433.528 348.035C428.916 364.186 441.839 362.954 441.839 362.954Z" fill="#232121"/>
<path d="M428.414 137.836C432.889 146.779 436.725 158.322 440.15 186.382C441.656 198.792 443.483 224.206 446.223 234.107C457.091 273.345 453.621 341.784 453.621 341.784L432.752 342.742C413.207 244.008 412.339 243.049 413.983 249.528C412.431 243.278 401.471 198.747 401.471 198.747L391.745 142.444L428.414 137.836Z" fill="#4D87DB"/>
<path d="M398.549 333.069C396.996 339.229 390.649 344.43 386.036 345.981C381.424 347.533 375.716 350.544 377.269 356.704C378.821 362.863 390.877 360.126 390.877 360.126C390.877 360.126 405.992 355.244 410.604 355.244C415.216 355.244 415.216 342.468 413.664 336.309C412.157 330.058 398.549 333.069 398.549 333.069Z" fill="black"/>
<path d="M378.091 239.81C380.602 278.911 392.155 342.377 392.155 342.377L415.947 341.556C415.947 341.556 415.171 273.984 412.294 258.836C409.6 244.646 402.978 215.172 402.978 215.172C402.978 215.172 410.011 250.715 411.609 256.965C413.161 263.216 431.108 343.107 431.108 343.107L446.725 341.601C445.538 329.739 434.441 264.859 428.962 240.54C425.765 226.35 416.175 168.36 415.216 144.954L371.241 132.863C371.241 132.908 377.086 224.16 378.091 239.81Z" fill="#3357BC"/>
<path d="M410.056 46.721C410.056 46.721 413.983 46.5384 426.907 51.9223C434.213 54.9792 438.049 61.8231 438.643 67.0701C439.236 72.2715 432.204 99.7839 431.062 105.578C429.921 111.373 420.605 130.216 421.381 140.574C421.792 146.368 396.311 144.589 385.397 144.68C385.397 123.236 390.283 71.9521 391.973 71.724C407.316 69.4883 410.056 46.721 410.056 46.721Z" fill="#D8D8D8"/>
<path d="M377.36 52.1504C376.081 57.8993 371.88 82.9479 373.798 84.2255C378.593 87.4193 410.833 82.446 410.833 82.446L415.445 148.786C415.445 148.786 373.433 150.976 373.433 154.124C373.433 158.869 369.277 133.593 369.277 128.483C369.277 123.373 364.619 92.6206 364.619 92.6206C364.619 92.6206 370.054 66.2488 372.428 54.5686C375.396 53.1542 377.36 52.1504 377.36 52.1504Z" fill="#3357BC"/>
<path d="M417.774 47.6335C417.774 47.6335 409.554 65.4732 405.307 80.9404C404.713 83.1761 404.439 89.9744 404.439 89.9744C404.439 89.9744 406.403 126.475 415.673 146.596C417.454 150.474 428.368 145.136 428.368 145.136C428.368 145.136 436.222 134.688 434.944 91.9363C434.852 89.3812 411.746 82.9936 411.746 80.4842C411.746 77.9291 422.112 49.1391 422.112 49.1391L417.774 47.6335Z" fill="#4D87DB"/>
<path d="M245.205 357.936H214.838L185.658 342.286V197.469L214.838 206.184H245.205V357.936Z" fill="#414E5B"/>
<path d="M370.236 206.184H214.929V357.936H370.236V206.184Z" fill="#758B9B"/>
<path d="M336.581 162.2C336.581 163.797 335.257 165.12 333.659 165.12H245.753C244.155 165.12 233.013 158.87 233.013 157.227V128.985C233.013 127.388 234.337 126.065 235.935 126.065H333.613C335.257 126.065 336.535 127.388 336.535 128.985V162.2H336.581Z" fill="black"/>
<path d="M245.479 164.938C245.479 147.144 242.785 125.836 234.976 126.247C228.081 126.612 226.026 145.684 226.026 163.478L245.479 164.938Z" fill="#232121"/>
<path d="M241.278 183.781C241.278 188.8 238.584 192.998 234.885 194.138C234.246 194.321 231.414 194.686 230.684 194.686C226.026 194.686 224.428 189.667 224.428 183.781C224.428 179.219 225.432 175.067 228.583 173.561C229.496 173.105 231.78 173.105 232.83 173.105C237.533 173.105 241.278 177.896 241.278 183.781Z" fill="#3357BC"/>
<path d="M238.721 184.055C238.721 189.941 234.976 194.732 230.318 194.732C225.66 194.732 221.916 189.941 221.916 184.055C221.916 178.169 225.706 173.379 230.318 173.379C234.976 173.379 238.721 178.169 238.721 184.055Z" fill="#4D87DB"/>
<path d="M233.88 183.736C233.835 186.61 232.008 188.937 229.77 188.891C227.533 188.846 225.752 186.519 225.797 183.599C225.843 180.724 227.67 178.397 229.907 178.443C232.145 178.489 233.926 180.861 233.88 183.736Z" fill="#3357BC"/>
<path d="M265.298 118.764H260.412V129.897H265.298V118.764Z" fill="#758B9B"/>
<path d="M275.755 118.764H270.869V129.897H275.755V118.764Z" fill="#758B9B"/>
<path d="M286.212 118.764H281.326V129.897H286.212V118.764Z" fill="#758B9B"/>
<path d="M292.788 119.175C292.788 120.635 291.601 121.821 290.14 121.821H254.749C253.288 121.821 252.101 120.635 252.101 119.175V112.514C252.101 111.054 253.288 109.822 254.749 109.822H290.14C291.601 109.822 292.788 111.008 292.788 112.514V119.175Z" fill="#758B9B"/>
<path d="M260.731 112.787H239.36V118.81H260.731V112.787Z" fill="#758B9B"/>
<path d="M222.281 198.29C222.19 198.29 215.431 197.788 208.216 196.192C201.093 194.321 193.056 192.496 190.59 185.652C190.316 184.694 190.179 183.644 190.179 182.686C190.224 177.074 194.699 173.014 201.321 170.55C208.079 167.995 217.806 166.398 230.912 165.85C232.51 165.805 233.88 167.037 233.971 168.634C234.017 170.23 232.784 171.599 231.186 171.69C218.4 172.238 209.13 173.835 203.422 176.025C197.576 178.306 196.024 180.679 196.069 182.686C196.069 183.097 196.115 183.553 196.298 184.101C196.206 185.834 202.737 189.211 209.541 190.488C216.253 191.994 222.738 192.45 222.738 192.45C224.336 192.587 225.569 193.956 225.432 195.598C225.295 197.15 224.017 198.29 222.51 198.29C222.464 198.336 222.373 198.336 222.281 198.29Z" fill="#232121"/>
<path d="M300.506 87.6474C300.506 87.6474 300.186 86.7349 299.318 86.4611C299.181 86.4155 299.09 86.3699 299.044 86.3699C298.359 86.1874 297.263 85.9592 295.756 86.5068C294.204 87.0086 293.428 87.693 293.017 88.2405C292.925 88.3318 292.834 88.423 292.743 88.5599C292.195 89.2899 292.514 90.2025 292.514 90.2025C292.514 90.2025 295.939 100.788 296.989 104.301C297.081 104.575 297.172 104.575 297.172 104.575C299.501 106.035 299.227 106.902 299.318 107.768C299.364 107.997 298.816 108.27 298.725 108.635C298.679 108.681 298.953 109.593 299.136 109.867C299.136 109.958 299.866 109.822 300.917 109.548C301.054 109.639 301.191 109.776 301.191 109.776C301.282 109.867 301.465 109.867 301.739 109.958C302.013 110.05 302.332 110.506 302.332 110.506L309.091 131.676L309.136 133.547L310.461 135.783L312.105 135.281L311.876 132.726H311.831L310.872 131.175L304.159 110.004C304.204 110.004 304.159 109.457 304.341 109.228C304.524 108.955 304.661 108.863 304.707 108.727C304.707 108.727 304.752 108.544 304.798 108.407C305.894 108.042 306.579 107.723 306.533 107.632C306.488 107.267 306.122 106.4 306.077 106.354C305.803 106.126 305.346 106.4 305.118 105.989C304.661 105.259 303.93 104.712 305.072 102.202C305.072 102.202 305.118 102.065 305.072 101.791C303.793 98.2326 300.506 87.6474 300.506 87.6474Z" fill="#4D87DB"/>
<path d="M311.876 132.635L310.872 131.083L304.159 109.913C304.204 109.913 304.159 109.365 304.341 109.137C304.524 108.863 304.661 108.772 304.707 108.635C304.707 108.635 304.752 108.453 304.798 108.316C305.894 107.951 306.579 107.632 306.533 107.54C306.488 107.175 306.122 106.308 306.077 106.263C305.803 106.035 305.346 106.308 305.118 105.898C304.661 105.168 303.93 104.62 305.072 102.111C305.072 102.111 305.118 101.974 305.072 101.7C303.885 98.187 300.597 87.6017 300.597 87.6017C300.597 87.6017 300.277 86.6892 299.41 86.4155C299.273 86.3698 299.181 86.3698 299.136 86.3242C298.451 86.1417 297.355 85.9136 295.848 86.4611C295.711 86.5067 295.619 86.5523 295.482 86.598L311.511 135.418L312.196 135.19L311.876 132.635Z" fill="#3357BC"/>
<path d="M303.656 118.81L306.716 118.536C306.716 118.536 308.086 118.673 308.771 117.259C309.045 116.711 307.766 115.981 306.899 115.981C306.625 115.981 303.93 115.89 303.93 115.89C303.93 115.89 304.889 115.89 305.711 115.57C307.355 114.977 308.771 114.293 308.269 112.97C307.721 111.647 304.798 113.015 303.611 112.742C304.615 112.468 307.538 111.19 307.081 110.187C306.625 109.183 303.063 109.365 302.743 109.365C302.469 109.365 301.099 108.681 301.099 108.681C301.099 108.681 303.611 108.407 303.976 108.133C304.387 107.86 304.615 107.175 304.159 106.4C303.702 105.578 300.962 105.35 300.369 105.305C299.775 105.305 297.766 103.982 296.944 103.982C296.167 103.936 295.848 106.308 295.711 106.902C295.574 107.495 296.989 107.905 296.944 108.498C296.944 109.092 296.533 110.689 297.081 111.419C297.629 112.149 298.633 113.107 298.633 113.107C298.633 113.107 298.633 114.339 299.044 115.662C299.501 116.985 300.46 116.802 300.46 117.624C300.506 118.354 303.656 118.81 303.656 118.81Z" fill="#E8C8BA"/>
<path d="M227.122 179.949C226.893 178.808 218.902 172.831 218.491 172.42C218.171 172.101 215.523 169.272 213.559 166.945C216.573 167.31 221.14 167.493 220.135 166.306C216.847 164.527 210.226 163.341 208.308 163.021L193.923 157.866C197.074 167.037 190.635 162.885 194.197 167.949C194.928 168.953 208.445 178.215 209.723 178.899C211.002 179.584 218.674 184.466 219.952 183.507C220.455 183.142 216.162 180.724 214.427 179.766C216.664 180.952 223.286 184.466 223.377 183.416C223.469 182.321 215.705 177.257 215.705 177.257C215.705 177.257 221.231 180.816 223.423 181.682C226.071 182.777 226.437 181.911 224.793 180.861C223.469 179.994 217.258 175.295 217.258 175.295C217.258 175.295 220.135 177.211 223.012 178.99C226.117 180.907 227.35 181.089 227.122 179.949Z" fill="#DDAC9E"/>
<path d="M168.99 76.4234C168.99 76.4234 162.825 82.081 162.095 88.2405C161.09 96.7269 156.934 131.448 162.095 140.528C173.1 159.919 178.443 164.801 195.293 171.508C201.093 173.789 206.481 160.329 206.481 160.329C206.481 160.329 188.169 132.452 187.713 128.528C187.256 124.559 187.393 89.2899 186.069 83.9517C184.516 77.6553 177.347 72.4539 168.99 76.4234Z" fill="#3357BC"/>
<path d="M323.11 173.151C323.11 174.884 321.786 176.299 320.187 176.299H303.337C301.739 176.299 300.414 174.884 300.414 173.151V154.17C300.414 152.436 301.739 151.022 303.337 151.022H320.187C321.786 151.022 323.11 152.436 323.11 154.17V173.151Z" fill="#414E5B"/>
<path d="M327.174 152.573C327.174 154.307 325.576 155.721 323.566 155.721H300.049C298.04 155.721 296.441 154.307 296.441 152.573V147.828C296.441 146.094 298.085 144.68 300.049 144.68H323.566C325.576 144.68 327.174 146.094 327.174 147.828V152.573Z" fill="#758B9B"/>
<path d="M338.864 200.024C338.864 201.758 337.54 203.172 335.942 203.172H287.582C285.938 203.172 284.66 201.758 284.66 200.024V175.477C284.66 173.744 285.984 172.329 287.582 172.329H335.942C337.54 172.329 338.864 173.744 338.864 175.477V200.024Z" fill="#BFB8B8"/>
<path d="M323.384 147.554C323.384 148.923 322.288 150.018 320.964 150.018C319.594 150.018 318.498 148.923 318.498 147.554V135.828C318.498 134.46 319.594 133.365 320.964 133.365C322.288 133.365 323.384 134.46 323.384 135.828V147.554Z" fill="#758B9B"/>
<path d="M315.073 147.554C315.073 148.923 313.977 150.018 312.652 150.018C311.283 150.018 310.187 148.923 310.187 147.554V135.828C310.187 134.46 311.283 133.365 312.652 133.365C314.022 133.365 315.073 134.46 315.073 135.828V147.554Z" fill="#758B9B"/>
<path d="M306.762 147.554C306.762 148.923 305.666 150.018 304.341 150.018C302.972 150.018 301.876 148.923 301.876 147.554V135.828C301.876 134.46 302.972 133.365 304.341 133.365C305.666 133.365 306.762 134.46 306.762 135.828V147.554Z" fill="#758B9B"/>
<path d="M345.805 171.782C345.349 171.097 345.577 170.185 346.262 169.774C350.007 167.493 352.153 161.014 352.107 153.258C352.107 145.684 350.144 137.015 346.719 130.445C343.248 123.829 338.453 119.449 332.882 119.494C332.106 119.494 331.33 119.586 330.508 119.768C321.74 121.593 323.703 129.395 322.334 133.958C322.06 134.733 321.238 135.098 320.461 134.87C319.685 134.597 319.274 133.775 319.548 133C320.553 130.718 318.589 119.266 329.914 116.939C330.919 116.711 331.923 116.62 332.882 116.62C347.358 117.031 354.938 137.334 355.03 153.303C354.984 161.47 353.066 168.907 347.815 172.329C347.586 172.466 347.312 172.557 347.038 172.557C346.582 172.466 346.079 172.238 345.805 171.782Z" fill="#E26713"/>
<path d="M336.353 172.603C335.85 171.964 335.987 171.052 336.627 170.55C339.138 168.907 343.842 157.318 343.705 146.094C343.705 137.243 341.102 128.619 333.795 123.92C329.731 121.319 326.443 120.316 323.886 120.316C317.31 120.316 314.114 127.023 314.068 133.41C314.068 134.231 313.429 134.87 312.607 134.87C311.785 134.87 311.146 134.186 311.146 133.41C311.146 126.338 314.844 117.487 323.886 117.395C327.174 117.395 331.01 118.627 335.394 121.456C343.887 126.931 346.673 136.741 346.627 146.094C346.49 158.185 342.426 169.592 338.408 172.922C338.134 173.105 337.814 173.196 337.54 173.196C337.083 173.196 336.672 173.014 336.353 172.603Z" fill="#C14E00"/>
<path d="M343.568 173.196C342.746 173.059 342.198 172.329 342.335 171.553C342.426 170.915 342.472 170.23 342.472 169.455C342.518 162.018 337.677 149.972 331.238 140.117C324.891 130.125 316.58 122.414 311.283 122.597C310.963 122.597 310.643 122.642 310.324 122.688C306.533 122.871 306.305 130.125 305.803 133.73C305.62 134.505 304.889 135.053 304.067 134.87C303.246 134.688 302.743 133.958 302.926 133.136C303.656 130.627 302.698 121.365 309.867 119.768C310.324 119.677 310.78 119.631 311.283 119.631C318.954 119.814 326.991 128.3 333.704 138.475C340.371 148.74 345.394 160.877 345.394 169.455C345.394 170.322 345.349 171.143 345.212 171.918C345.12 172.648 344.481 173.196 343.75 173.196C343.705 173.196 343.659 173.196 343.568 173.196Z" fill="#E26713"/>
<path d="M368.729 125.334C364.482 126.84 348.956 127.205 347.084 128.802C345.212 130.399 340.189 133 340.189 133L339.001 140.665C339.001 140.665 340.143 141.668 341.193 139.707C342.198 137.745 343.659 135.965 343.659 135.965C343.659 135.965 340.919 140.528 340.6 141.851C339.732 145.182 340.919 145.866 340.919 145.866C340.919 145.866 341.604 146.322 343.979 140.984C344.618 139.57 345.303 138.84 345.988 138.475C345.44 139.113 344.938 139.752 344.755 140.208C344.298 141.258 341.924 146.459 342.654 147.463C343.339 148.467 344.664 146.824 345.805 144.634C346.216 143.859 347.404 142.307 348.5 140.938L345.577 146.87C345.577 146.87 344.253 149.105 346.856 148.33C349.459 147.554 350.692 143.311 352.427 142.17C354.162 141.03 363.204 139.843 369.095 135.463C373.844 131.859 368.729 125.334 368.729 125.334Z" fill="#DDAC9E"/>
<path d="M422.523 57.3062C418.596 65.1082 404.942 91.2063 395.398 99.6471C387.498 106.628 359.14 125.654 359.14 125.654L367.77 144.862C367.77 144.862 405.992 122.916 410.787 117.213C418.824 107.677 438.643 86.598 437.638 68.0283C437.181 58.2187 422.523 57.3062 422.523 57.3062Z" fill="#D8D8D8"/>
<g clip-path="url(#clip0)">
<path d="M1555.74 35.5896C1556.23 40.1532 1550.51 55.3651 1547.56 61.7631C1544.66 68.1611 1545.06 68.877 1545.06 68.877L1568.39 89.9501C1568.39 89.9501 1567.28 62.479 1575.19 59.0339C1580.11 56.8863 1555.74 35.5896 1555.74 35.5896Z" fill="#DDAC9E"/>
<path d="M1575.72 57.7812C1576.89 56.8864 1575.46 54.2466 1573.4 51.4727L1571.79 50.7568L1559.14 78.9438L1564.95 83.8206L1568.66 79.1227C1568.62 79.1227 1567.86 63.8213 1575.72 57.7812Z" fill="#E8C8BA"/>
<path d="M1587.88 34.9185C1588.69 48.1619 1581.63 62.6133 1574.79 63.0159C1567.95 63.4186 1552.34 52.636 1551.54 39.4373C1550.73 26.1939 1559.14 14.0691 1572.06 15.2771C1586.23 16.5299 1587.08 21.6751 1587.88 34.9185Z" fill="#E8C8BA"/>
<path d="M1550.96 41.7638C1551.72 53.7992 1566.6 61.3604 1573.58 63.0159C1564.91 57.7811 1561.42 33.5762 1566.25 18.6326C1566.25 18.6326 1563.48 18.9011 1558.47 20.0196C1555.52 23.7331 1550.56 34.9184 1550.96 41.7638Z" fill="#DDAC9E"/>
<path d="M1585.56 13.2637C1588.78 18.9459 1588.33 22.8831 1585.2 23.5095C1582.07 24.1358 1578.9 24.0463 1576.89 26.0597C1575.01 27.9388 1571.57 28.6099 1570.14 29.9074C1568.71 31.1602 1570.85 24.5832 1570.85 24.5832L1568.75 29.7285L1568.71 24.8964L1567.95 27.4467L1563.3 31.5181L1562.72 38.3635L1559.54 41.1375L1558.07 36.2607L1556.14 44.672L1550.11 55.5889C1550.11 55.5889 1545.73 46.4617 1544.48 42.2113C1542.96 37.2002 1543.36 35.9922 1543.22 33.0393C1543 29.3705 1543 28.4757 1543.05 25.0307C1543.14 21.2724 1545.91 15.5455 1548.37 14.5612C1550.78 13.5769 1552.25 12.8611 1553.6 13.3532C1554.94 13.8006 1554.71 10.9819 1558.25 9.68444C1561.78 8.3422 1561.64 7.85005 1566.87 7.17893C1572.1 6.50781 1575.81 7.76057 1580.2 9.37125C1583.06 10.445 1585.56 13.2637 1585.56 13.2637Z" fill="#300901"/>
<path d="M1518.37 388.508L1513.59 388.955C1513.59 388.955 1497.49 387.702 1505.45 377.233C1510.19 370.969 1512.38 363.677 1514.39 357.279C1515.64 353.207 1530.62 357.01 1530.62 357.01C1530.62 357.01 1526.73 368.419 1528.65 372.177C1537.06 388.508 1518.37 388.508 1518.37 388.508Z" fill="#232121"/>
<path d="M1576.26 353.297C1578 360.052 1574.03 366.585 1585.2 370.477C1590.34 372.267 1598.79 375.936 1597.99 381.036C1596.91 387.926 1581.45 385.465 1581.45 385.465C1581.45 385.465 1564.15 378.665 1558.96 378.665C1553.77 378.665 1555.88 364.885 1557.57 358.084C1559.32 351.373 1576.26 353.297 1576.26 353.297Z" fill="black"/>
<path d="M1546.44 64.8503C1538.13 67.3558 1522.03 70.8009 1520.11 73.9327C1518.19 77.0646 1528.11 105.833 1529.37 114.602C1530.66 123.372 1590.12 123.998 1590.12 123.998L1598.75 97.4218C1598.75 97.4218 1590.75 77.0199 1588.78 75.9908C1583.77 73.3511 1573.53 69.3244 1569.87 68.877C1568.44 75.4539 1569.64 77.5568 1566.74 80.3755C1563.92 83.1494 1546.44 64.8503 1546.44 64.8503Z" fill="#D8D8D8"/>
<path d="M1546.67 64.4029C1538.35 66.9084 1521.41 70.8008 1519.49 73.9327C1517.56 77.0646 1528.11 97.6903 1527.8 117.734C1527.71 123.506 1559.45 122.656 1577.16 123.506C1574.79 106.012 1570.32 84.2679 1568.75 78.6753C1562.22 82.2098 1546.67 64.4029 1546.67 64.4029Z" fill="#BFB8B8"/>
<path d="M1576.4 70.1745C1581.54 77.0646 1583.77 102.075 1583.77 102.075H1588.87C1588.87 102.075 1585.69 74.2459 1583.1 72.9932C1580.55 71.7404 1576.4 70.1745 1576.4 70.1745Z" fill="#4D87DB"/>
<path d="M1587.12 97.8693C1587.12 97.8693 1567.28 99.0326 1553.86 98.4062C1553.86 95.9007 1539.69 73.5301 1536.38 69.1007L1532.32 69.5481C1532.32 69.5481 1542.38 93.3057 1542.38 99.5695C1542.38 105.833 1525.92 110.531 1525.57 111.471C1524.54 114.424 1530.04 147.129 1530.71 154.019C1530.8 155.317 1530.71 157.644 1530.44 160.507C1519.8 185.651 1519.22 232.451 1517.61 250.168C1515.55 273.344 1496.78 357.726 1510.23 367.882L1531.33 367.122C1531.33 367.122 1544.92 292.672 1546.67 285.782C1548.41 278.892 1563.48 218.67 1563.48 218.67C1563.48 218.67 1561.11 276.252 1559.23 290.704C1550.91 354.505 1555.47 364.929 1555.47 364.929L1579.26 364.169C1586.01 362.871 1586.01 337.816 1592.71 283.59C1600.54 220.236 1597 161.446 1597 161.446C1598.3 125.117 1589.05 107.265 1587.12 97.8693Z" fill="#4D87DB"/>
<path d="M1553.86 98.2719C1553.86 95.7664 1539.47 71.6509 1536.12 67.1768L1529.14 69.0559C1529.14 69.0559 1542.33 93.1714 1542.33 99.4352C1542.33 105.699 1525.88 110.397 1525.52 111.336C1524.49 114.289 1529.99 146.995 1530.66 153.885C1530.75 155.227 1530.66 157.509 1530.39 160.373C1519.75 185.517 1519.17 232.316 1517.61 250.034C1515.51 273.21 1496.78 357.592 1510.19 367.793L1531.29 366.987C1531.29 366.987 1548.9 302.963 1550.65 296.073C1552.39 289.182 1559.81 244.307 1559.81 244.307C1559.81 244.307 1557.17 275 1555.29 289.451C1546.98 353.252 1555.47 364.84 1555.47 364.84L1568.39 365.287C1571.39 347.167 1576.93 302.381 1579.26 277.818C1581.89 250.437 1585.69 150.798 1580.55 98.2272C1573.94 98.4061 1560.61 98.5851 1553.86 98.2719Z" fill="#3357BC"/>
<path d="M1525.97 131.873L1585.02 124.222L1624.59 132.409L1576.13 143.326L1525.97 131.873Z" fill="black"/>
<path d="M1512.38 131.067C1536.52 133.573 1546.98 137.465 1546.98 137.465C1546.98 137.465 1550.47 134.691 1554.36 131.828C1563.16 125.251 1563.74 128.696 1563.74 128.696L1558.25 135.228L1574.16 135.049C1574.16 135.049 1575.23 134.87 1576.08 135.72C1578.63 138.181 1580.6 143.058 1572.24 146.369C1561.11 150.843 1556.81 147.532 1546.62 148.516C1534.82 149.635 1521.77 148.74 1516.09 148.74C1510.41 148.695 1512.38 131.067 1512.38 131.067Z" fill="#E8C8BA"/>
<path d="M1519.8 73.9327C1512.6 75.8119 1503.93 106.639 1500.35 118.405C1496.02 132.767 1496.55 139.926 1498.21 142.745C1502.54 150.261 1539.96 158.717 1539.96 158.717L1542.38 135.72C1542.38 135.72 1517.43 130.53 1518.37 129.143C1521.81 124.088 1528.52 111.605 1528.61 108.965C1529.37 82.2099 1519.8 73.9327 1519.8 73.9327Z" fill="#D8D8D8"/>
<path d="M1576.66 142.789L1589.49 87.1761L1646 83.0152L1630.31 134.333L1576.66 142.789Z" fill="black"/>
<path d="M1613.95 141.537C1611.44 142.834 1609.61 143.595 1607.2 144.311C1604.78 144.982 1604.2 142.924 1602.91 141.537C1601.65 140.194 1599.06 136.391 1599.51 133.975C1599.95 131.559 1602.46 137.107 1602.68 137.913C1602.91 138.673 1598.7 133.349 1599.95 131.559C1601.16 129.814 1604.2 136.033 1604.69 136.749C1605.18 137.465 1599.82 132.141 1601.16 129.814C1602.5 127.443 1607.42 136.257 1607.42 136.257C1607.42 136.257 1603.84 128.204 1605.27 128.07C1606.7 127.935 1610.24 134.02 1610.46 134.825C1610.68 135.631 1612.87 136.123 1612.25 134.02C1611.62 131.917 1613.41 127.175 1613.41 127.175C1613.41 127.175 1614.62 128.248 1614.66 131.336C1614.71 134.423 1615.74 138.986 1615.74 138.986L1613.95 141.537Z" fill="#DDAC9E"/>
</g>
<g clip-path="url(#clip1)">
<path d="M1847.03 264.49C1841.02 266.111 1832.22 293.594 1826.85 328.05C1821.68 361.248 1821.56 389.299 1826.2 394.285C1827.37 396.676 1829.83 398.582 1832.9 399.068L1856.96 402.838C1861.04 403.486 1864.14 402.189 1866.69 398.298C1872.18 390.961 1880.65 366.68 1885.13 337.697C1889.65 308.714 1887.88 282.974 1885.54 273.691C1884.77 270.367 1882.23 267.124 1878.15 266.476L1854.09 262.706C1851.43 262.26 1848.89 263.03 1847.03 264.49Z" fill="black"/>
<path d="M1885.62 273.691C1884.85 270.367 1882.31 267.124 1878.23 266.476L1854.17 262.706C1851.47 262.26 1848.89 263.03 1847.07 264.53C1841.06 266.152 1832.26 293.635 1826.89 328.09C1826.81 328.576 1826.73 329.063 1826.69 329.549L1885.09 338.71C1885.13 338.386 1885.17 338.062 1885.26 337.697C1889.74 308.714 1887.96 282.974 1885.62 273.691Z" fill="#232121"/>
<path d="M1847.68 272.475C1851.79 273.124 1851.15 299.472 1846.18 331.292C1841.22 363.113 1833.87 388.407 1829.75 387.759C1825.64 387.11 1826.28 360.762 1831.25 328.941C1836.17 297.08 1843.52 271.827 1847.68 272.475Z" fill="black"/>
<path d="M1846.46 284.19C1849.29 284.636 1848.4 305.593 1844.45 331.009C1840.49 356.425 1835 376.652 1832.14 376.246C1829.31 375.801 1830.2 354.844 1834.15 329.428C1838.11 303.971 1843.64 283.744 1846.46 284.19Z" fill="#BFB8B8"/>
<path d="M1843.48 272.678C1849.49 274.056 1859.42 270.651 1859.22 269.881C1858.78 268.3 1857.77 268.26 1853 268.3C1856.43 267.165 1858.33 265.463 1860.19 265.26C1862.05 265.057 1867.09 265.787 1867.33 264.165C1867.58 262.544 1862.21 257.842 1855.51 260.436C1848.81 263.03 1840.09 264.692 1840.09 264.692L1843.48 272.678Z" fill="#E26713"/>
<path d="M1764.65 366.072C1763.39 373.044 1762.75 381.922 1767.79 381.922C1772.84 381.922 1774.74 378.76 1781.68 380.016C1788.62 381.273 1808.8 385.083 1808.8 380.016C1808.8 374.949 1805.7 372.923 1802.06 372.436C1793.3 371.261 1786.2 357.56 1782.93 358.492C1778.53 359.748 1764.65 366.072 1764.65 366.072Z" fill="black"/>
<path d="M1763.64 290.838C1772.03 291.689 1817.24 289.419 1821.44 297.85C1825.64 306.282 1815.34 319.497 1810.3 332.995C1805.25 346.493 1798.51 366.883 1792.66 369.436C1786.77 371.95 1766.95 372.233 1765.17 369.761C1757.78 359.384 1780.59 330.036 1786.44 323.429C1790.4 318.97 1766.1 325.942 1760.21 327.644L1763.64 290.838Z" fill="#3357BC"/>
<path d="M1788.42 233.156C1793.95 238.466 1803.36 260.152 1812.68 265.503C1815.46 267.084 1842.91 263.517 1842.91 263.517L1844.97 278.637C1844.97 278.637 1812.8 285.366 1807.51 283.096C1802.27 280.826 1767.15 255.775 1767.15 255.775L1788.42 233.156Z" fill="#BFB8B8"/>
<path d="M1788.06 241.79C1795.08 238.263 1804.16 231.656 1804.16 231.656L1796.9 217.185C1796.9 217.185 1774.45 225.657 1771.95 227.156C1769.41 228.656 1788.06 241.79 1788.06 241.79Z" fill="#DDAC9E"/>
<path d="M1828.54 197.606C1825.11 184.918 1796.41 174.014 1790.12 192.985C1778.65 227.521 1799.84 236.196 1799.84 236.196C1807.31 237.331 1809.01 238.506 1814.74 237.331C1817.52 236.763 1820.47 233.318 1822.97 228.494C1825.39 228.413 1828.02 227.967 1828.06 226.265C1827.25 223.792 1826.77 221.765 1826.44 220.022C1828.99 212.239 1830.12 203.524 1828.54 197.606Z" fill="#E8C8BA"/>
<path d="M1782.41 223.062C1774.86 224.562 1744.54 230.278 1724.04 294.527C1724.04 294.527 1753.46 323.955 1759.48 323.955C1761.74 315.646 1788.54 267.895 1789.27 245.235C1789.63 234.655 1782.41 223.062 1782.41 223.062Z" fill="#D8D8D8"/>
<path d="M1814.21 185.932C1804.73 182.202 1793.39 181.878 1789.71 192.985C1778.25 227.521 1799.44 236.196 1799.44 236.196C1800.29 236.317 1807.51 237.574 1808.24 237.696C1795.77 226.589 1808.16 199.308 1814.21 185.932Z" fill="#DDAC9E"/>
<path d="M1794.39 183.216C1797.62 180.257 1804.77 177.46 1813.89 180.013C1822.73 182.527 1825.31 185.161 1829.47 192.823C1831.61 196.714 1829.67 203.321 1829.67 203.321C1829.67 203.321 1826.44 201.741 1824.18 201.741C1821.92 201.741 1819.38 199.754 1815.46 202.957C1812.2 205.632 1810.46 209.361 1810.46 209.361C1810.46 209.361 1800.49 210.212 1799.52 213.172C1798.55 216.09 1786.28 221.684 1786.28 221.684C1786.28 221.684 1782.29 210.172 1782.49 202.997C1783.05 186.175 1793.63 183.905 1794.39 183.216Z" fill="#300901"/>
<path d="M1805.17 210.212C1804.12 208.469 1803.52 205.997 1801.22 207.213C1798.92 208.429 1794.39 216.414 1797.18 220.063C1799.92 223.711 1805.17 210.212 1805.17 210.212Z" fill="#DDAC9E"/>
<path d="M1815.67 202.916C1819.58 199.714 1822.13 201.741 1824.39 201.741C1826.65 201.741 1829.88 203.321 1829.88 203.321C1829.88 203.321 1831.81 196.755 1829.71 192.823C1825.56 185.161 1824.06 183.054 1815.22 180.54C1811.63 179.527 1808.68 194.89 1808.89 209.402C1811.63 208.753 1810.7 209.28 1810.7 209.28C1810.7 209.28 1812.36 205.632 1815.67 202.916Z" fill="#662619"/>
<path d="M1695.74 352.411C1690.05 347.345 1686.9 343.534 1680.61 344.183C1674.31 344.831 1672.78 348.439 1672.78 353.506C1672.78 358.573 1670.72 366.68 1671 372.679C1671.2 376.976 1675.28 386.259 1689.81 384.354C1699.26 383.097 1688.56 375.679 1687.27 370.612C1686.02 365.545 1695.74 352.411 1695.74 352.411Z" fill="#232121"/>
<path d="M1753.34 249.451C1753.34 248.64 1745.71 247.262 1745.43 247.667C1720.04 281.92 1713.1 311.268 1720.73 327.604C1727.03 341.183 1738.65 358.005 1739.94 358.654C1740.71 359.059 1736.07 356.465 1731.87 354.763C1727.67 353.101 1697.6 335.954 1687.27 352.493C1684.04 357.681 1683.31 373.085 1689.37 376.53C1704.22 384.962 1744.75 393.88 1751.93 393.798C1763.84 393.677 1769.53 391.812 1768.68 368.139C1767.83 344.467 1767.92 313.7 1767.92 313.7L1779.54 275.232C1779.54 275.272 1753.83 291.365 1753.34 249.451Z" fill="#4D87DB"/>
<path d="M1687.87 377.057C1717.3 387.759 1739.74 394.163 1751.69 394.042C1763.6 393.92 1774.82 388.934 1771.59 369.436C1766.62 339.562 1770.05 316.051 1770.05 316.051L1783.38 275.759C1783.38 275.759 1770.3 280.785 1760.57 275.272C1757.99 280.299 1748.94 304.823 1747.33 311.308C1746.56 314.47 1753.46 330.401 1757.34 341.832C1762.06 355.816 1767.63 381.476 1755.97 383.381C1738.29 386.299 1696.51 366.315 1685.17 360.478C1682.95 363.072 1685.57 376.206 1687.87 377.057Z" fill="#3357BC"/>
<path d="M1741.4 261.49C1742.85 254.64 1757.42 236.966 1766.7 232.183C1780.91 224.886 1789.75 235.669 1791.25 249.41C1792.7 263.152 1784.91 273.813 1784.91 273.813L1782.49 275.029C1782.49 275.029 1789.95 243.979 1783.62 236.642C1777.28 229.264 1764.48 229.345 1748.22 258.572C1743.45 267.084 1741.4 261.49 1741.4 261.49Z" fill="#4D87DB"/>
<path d="M1833.23 303.931C1835.97 303.526 1848.6 299.35 1849.86 300.404C1851.11 301.458 1849.37 302.715 1847.35 304.174C1845.33 305.593 1846.42 305.471 1846.42 305.471C1846.42 305.471 1850.66 306.89 1856.27 310.741C1859.14 312.687 1859.79 316.375 1854.86 313.862C1856.92 315.767 1857.65 319.01 1853.53 317.754C1855.22 319.578 1854.78 321.848 1851.31 320.834C1852.4 321.767 1852.16 323.347 1849.98 323.591C1848.6 323.753 1843.92 324.199 1837.79 320.51C1831.69 316.821 1827.25 314.511 1827.25 314.511L1833.23 303.931Z" fill="#E26713"/>
<path d="M1837.79 320.51C1843.88 324.199 1848.6 323.753 1849.98 323.591C1852.16 323.347 1852.4 321.767 1851.31 320.834C1854.01 321.604 1854.86 320.429 1854.3 318.97C1846.3 317.875 1836.82 313.214 1830.6 308.592L1827.25 314.47C1827.25 314.511 1831.69 316.821 1837.79 320.51Z" fill="#C14E00"/>
<path d="M1765.41 238.75C1762.47 243.33 1758.27 244.952 1758.27 244.952C1761.3 254.518 1778.29 284.231 1785.84 293.797C1793.35 303.363 1829.27 318.929 1829.27 318.929L1833.75 303.039C1833.75 303.039 1806.54 281.555 1801.01 272.475C1795.48 263.395 1788.22 243.371 1784.46 238.223C1777.48 228.697 1769.13 232.994 1765.41 238.75Z" fill="#D8D8D8"/>
</g>
<defs>
<linearGradient id="paint0_linear" x1="370.611" y1="59.0187" x2="406.873" y2="51.738" gradientUnits="userSpaceOnUse">
<stop stop-color="white"/>
<stop offset="0.6429" stop-color="#C6C0B9"/>
</linearGradient>
<clipPath id="clip0">
<rect x="1497" y="7" width="149" height="382" fill="white"/>
</clipPath>
<clipPath id="clip1">
<rect x="1671" y="179" width="217" height="224" fill="white"/>
</clipPath>
</defs>
</svg>
