<svg width="157" height="92" viewBox="0 0 157 92" fill="none" xmlns="http://www.w3.org/2000/svg">
<path d="M9.65137 71H1.16016V21.3379H9.65137V71ZM0.47168 8.16504C0.47168 6.78809 0.884766 5.62533 1.71094 4.67676C2.56771 3.72819 3.82227 3.25391 5.47461 3.25391C7.12695 3.25391 8.38151 3.72819 9.23828 4.67676C10.0951 5.62533 10.5234 6.78809 10.5234 8.16504C10.5234 9.54199 10.0951 10.6895 9.23828 11.6074C8.38151 12.5254 7.12695 12.9844 5.47461 12.9844C3.82227 12.9844 2.56771 12.5254 1.71094 11.6074C0.884766 10.6895 0.47168 9.54199 0.47168 8.16504ZM50.7305 71C50.1185 69.8066 49.6748 68.3226 49.3994 66.5479C46.1865 70.1279 42.0098 71.918 36.8691 71.918C32.0039 71.918 27.9648 70.5104 24.752 67.6953C21.5697 64.8802 19.9785 61.3307 19.9785 57.0469C19.9785 51.7839 21.9215 47.7448 25.8076 44.9297C29.7243 42.1146 35.3698 40.6917 42.7441 40.6611H48.8486V37.8154C48.8486 35.5205 48.252 33.6846 47.0586 32.3076C45.8958 30.9307 44.0446 30.2422 41.5049 30.2422C39.2712 30.2422 37.5117 30.7777 36.2266 31.8486C34.972 32.9196 34.3447 34.3883 34.3447 36.2549H21.0801C21.0801 33.3786 21.9674 30.7165 23.7422 28.2686C25.5169 25.8206 28.026 23.9082 31.2695 22.5312C34.513 21.1237 38.1543 20.4199 42.1934 20.4199C48.3132 20.4199 53.1631 21.9652 56.7432 25.0557C60.3538 28.1156 62.1592 32.43 62.1592 37.999V59.5254C62.1898 64.2376 62.8477 67.8024 64.1328 70.2197V71H50.7305ZM39.7607 61.7744C41.7191 61.7744 43.5244 61.346 45.1768 60.4893C46.8291 59.6019 48.0531 58.4238 48.8486 56.9551V48.418H43.8916C37.2516 48.418 33.7174 50.7129 33.2891 55.3027L33.2432 56.083C33.2432 57.7354 33.8245 59.097 34.9873 60.168C36.1501 61.2389 37.7412 61.7744 39.7607 61.7744ZM82.9053 71H74.4141V0.5H82.9053V71ZM105.763 71H97.2715V0.5H105.763V71ZM135.643 58.5615L147.209 21.3379H156.297L136.331 78.665C133.241 86.9268 128.329 91.0576 121.598 91.0576L119.991 90.9199L116.824 90.3232V83.4385L119.119 83.6221C121.995 83.6221 124.229 83.0407 125.82 81.8779C127.442 80.7152 128.773 78.5885 129.813 75.498L131.695 70.4492L113.979 21.3379H123.25L135.643 58.5615Z" fill="#1E90FF"/>
</svg>
